<?xml version='1.0' encoding='UTF-8' standalone='no'?>
<svg xmlns:freecad="http://www.freecadweb.org/wiki/index.php?title=Svg_Namespace" version="1.2" height="297mm" width="420mm" xmlns:dc="http://purl.org/dc/elements/1.1/" xmlns:rdf="http://www.w3.org/1999/02/22-rdf-syntax-ns#" xmlns:cc="http://creativecommons.org/ns#" xmlns:inkscape="http://www.inkscape.org/namespaces/inkscape" viewBox="0 0 4200 2970" xmlns:xlink="http://www.w3.org/1999/xlink" baseProfile="tiny" xmlns="http://www.w3.org/2000/svg" xmlns:sodipodi="http://sodipodi.sourceforge.net/DTD/sodipodi-0.dtd" xmlns:svg="http://www.w3.org/2000/svg">
 <title>FreeCAD SVG Export</title>
 <desc>Drawing page: Page002 exported from FreeCAD document: Alpha</desc>
 <defs/>
 <g inkscape:label="TechDraw" inkscape:groupmode="layer" id="Page002">
  <g fill-rule="evenodd" fill="none" stroke-linejoin="bevel" stroke-width="1" stroke-linecap="square" stroke="black" id="DrawingContent">
   <g fill="none" transform="matrix(1,0,0,1,2100,1485)" stroke-linejoin="bevel" stroke-width="1" font-weight="400" stroke-linecap="square" font-style="normal" stroke-opacity="1" font-family="Sans Serif" font-size="31.75" stroke="#000000">
    <rect y="0" height="0" width="0" x="0"/>
   </g>
   <g fill="#ffffff" transform="matrix(1,0,0,1,2100,1485)" fill-opacity="1" font-weight="400" font-style="normal" font-family="Sans Serif" font-size="31.75" stroke="none">
    <path fill-rule="evenodd" vector-effect="non-scaling-stroke" d="M-400,335 L-400,-365 L400,-365 L400,335 L150,335 L150,280 L165,280 L165,235 L105,235 L105,280 L120,280 L120,335 L105,335 L105,365 L-255,365 L-255,335 L-270,335 L-270,280 L-255,280 L-255,235 L-315,235 L-315,280 L-300,280 L-300,335 L-400,335"/>
   </g>
   <g fill="#ffffff" transform="matrix(1,0,0,1,2100,1485)" fill-opacity="1" font-weight="400" font-style="normal" font-family="Sans Serif" font-size="31.75" stroke="none">
    <path fill-rule="evenodd" vector-effect="non-scaling-stroke" d="M270.89,-280 L270.89,-187.5 L340,-187.5 L340,-167.5 L270,-167.5 L270,-75 L-140,-75 L-140,-167.5 L-210,-167.5 L-210,-187.5 L-139.11,-187.5 L-139.11,-280 L270.89,-280"/>
   </g>
   <g fill="#ffffff" transform="matrix(1,0,0,1,2100,1485)" fill-opacity="1" font-weight="400" font-style="normal" font-family="Sans Serif" font-size="31.75" stroke="none">
    <path fill-rule="evenodd" vector-effect="non-scaling-stroke" d="M-100,295 L-100,35 L-130,35 L-130,295 L-100,295"/>
   </g>
   <g fill="#ffffff" transform="matrix(1,0,0,1,2100,1485)" fill-opacity="1" font-weight="400" font-style="normal" font-family="Sans Serif" font-size="31.75" stroke="none">
    <path fill-rule="evenodd" vector-effect="non-scaling-stroke" d="M-157.5,-128 C-157.5,-115.574 -167.574,-105.5 -180,-105.5 C-192.426,-105.5 -202.5,-115.574 -202.5,-128 C-202.5,-140.426 -192.426,-150.5 -180,-150.5 C-167.574,-150.5 -157.5,-140.426 -157.5,-128 "/>
   </g>
   <g fill="#ffffff" transform="matrix(1,0,0,1,2100,1485)" fill-opacity="1" font-weight="400" font-style="normal" font-family="Sans Serif" font-size="31.75" stroke="none">
    <path fill-rule="evenodd" vector-effect="non-scaling-stroke" d="M327.5,-128 C327.5,-115.574 317.426,-105.5 305,-105.5 C292.574,-105.5 282.5,-115.574 282.5,-128 C282.5,-140.426 292.574,-150.5 305,-150.5 C317.426,-150.5 327.5,-140.426 327.5,-128 "/>
   </g>
   <g fill="#ffffff" transform="matrix(1,0,0,1,2100,1485)" fill-opacity="1" font-weight="400" font-style="normal" font-family="Sans Serif" font-size="31.75" stroke="none">
    <path fill-rule="evenodd" vector-effect="non-scaling-stroke" d="M-157.5,-227 C-157.5,-214.574 -167.574,-204.5 -180,-204.5 C-192.426,-204.5 -202.5,-214.574 -202.5,-227 C-202.5,-239.426 -192.426,-249.5 -180,-249.5 C-167.574,-249.5 -157.5,-239.426 -157.5,-227 "/>
   </g>
   <g fill="#ffffff" transform="matrix(1,0,0,1,2100,1485)" fill-opacity="1" font-weight="400" font-style="normal" font-family="Sans Serif" font-size="31.75" stroke="none">
    <path fill-rule="evenodd" vector-effect="non-scaling-stroke" d="M327.5,-227 C327.5,-214.574 317.426,-204.5 305,-204.5 C292.574,-204.5 282.5,-214.574 282.5,-227 C282.5,-239.426 292.574,-249.5 305,-249.5 C317.426,-249.5 327.5,-239.426 327.5,-227 "/>
   </g>
   <g fill="#ffffff" transform="matrix(1,0,0,1,2100,1485)" fill-opacity="1" font-weight="400" font-style="normal" font-family="Sans Serif" font-size="31.75" stroke="none">
    <path fill-rule="evenodd" vector-effect="non-scaling-stroke" d="M-100,5 C-100,13.2843 -106.716,20 -115,20 C-123.284,20 -130,13.2843 -130,5 C-130,-3.28427 -123.284,-10 -115,-10 C-106.716,-10 -100,-3.28427 -100,5 "/>
   </g>
   <g fill="none" transform="matrix(1,0,0,1,2100,1485)" stroke-linejoin="bevel" stroke-width="7" font-weight="400" stroke-linecap="round" font-style="normal" stroke-opacity="1" font-family="Sans Serif" font-size="31.75" stroke="#000000">
    <path fill-rule="evenodd" vector-effect="none" d="M-270,335 L-270,280"/>
   </g>
   <g fill="none" transform="matrix(1,0,0,1,2100,1485)" stroke-linejoin="bevel" stroke-width="7" font-weight="400" stroke-linecap="round" font-style="normal" stroke-opacity="1" font-family="Sans Serif" font-size="31.75" stroke="#000000">
    <path fill-rule="evenodd" vector-effect="none" d="M-270,335 L-255,335"/>
   </g>
   <g fill="none" transform="matrix(1,0,0,1,2100,1485)" stroke-linejoin="bevel" stroke-width="7" font-weight="400" stroke-linecap="round" font-style="normal" stroke-opacity="1" font-family="Sans Serif" font-size="31.75" stroke="#000000">
    <path fill-rule="evenodd" vector-effect="none" d="M-270,280 L-255,280"/>
   </g>
   <g fill="none" transform="matrix(1,0,0,1,2100,1485)" stroke-linejoin="bevel" stroke-width="7" font-weight="400" stroke-linecap="round" font-style="normal" stroke-opacity="1" font-family="Sans Serif" font-size="31.75" stroke="#000000">
    <path fill-rule="evenodd" vector-effect="none" d="M-255,335 L-255,365"/>
   </g>
   <g fill="none" transform="matrix(1,0,0,1,2100,1485)" stroke-linejoin="bevel" stroke-width="7" font-weight="400" stroke-linecap="round" font-style="normal" stroke-opacity="1" font-family="Sans Serif" font-size="31.75" stroke="#000000">
    <path fill-rule="evenodd" vector-effect="none" d="M-255,280 L-255,235"/>
   </g>
   <g fill="none" transform="matrix(1,0,0,1,2100,1485)" stroke-linejoin="bevel" stroke-width="7" font-weight="400" stroke-linecap="round" font-style="normal" stroke-opacity="1" font-family="Sans Serif" font-size="31.75" stroke="#000000">
    <path fill-rule="evenodd" vector-effect="none" d="M-255,365 L105,365"/>
   </g>
   <g fill="none" transform="matrix(1,0,0,1,2100,1485)" stroke-linejoin="bevel" stroke-width="7" font-weight="400" stroke-linecap="round" font-style="normal" stroke-opacity="1" font-family="Sans Serif" font-size="31.75" stroke="#000000">
    <path fill-rule="evenodd" vector-effect="none" d="M-255,235 L-315,235"/>
   </g>
   <g fill="none" transform="matrix(1,0,0,1,2100,1485)" stroke-linejoin="bevel" stroke-width="7" font-weight="400" stroke-linecap="round" font-style="normal" stroke-opacity="1" font-family="Sans Serif" font-size="31.75" stroke="#000000">
    <path fill-rule="evenodd" vector-effect="none" d="M105,365 L105,335"/>
   </g>
   <g fill="none" transform="matrix(1,0,0,1,2100,1485)" stroke-linejoin="bevel" stroke-width="7" font-weight="400" stroke-linecap="round" font-style="normal" stroke-opacity="1" font-family="Sans Serif" font-size="31.75" stroke="#000000">
    <path fill-rule="evenodd" vector-effect="none" d="M-315,235 L-315,280"/>
   </g>
   <g fill="none" transform="matrix(1,0,0,1,2100,1485)" stroke-linejoin="bevel" stroke-width="7" font-weight="400" stroke-linecap="round" font-style="normal" stroke-opacity="1" font-family="Sans Serif" font-size="31.75" stroke="#000000">
    <path fill-rule="evenodd" vector-effect="none" d="M105,335 L120,335"/>
   </g>
   <g fill="none" transform="matrix(1,0,0,1,2100,1485)" stroke-linejoin="bevel" stroke-width="7" font-weight="400" stroke-linecap="round" font-style="normal" stroke-opacity="1" font-family="Sans Serif" font-size="31.75" stroke="#000000">
    <path fill-rule="evenodd" vector-effect="none" d="M-315,280 L-300,280"/>
   </g>
   <g fill="none" transform="matrix(1,0,0,1,2100,1485)" stroke-linejoin="bevel" stroke-width="7" font-weight="400" stroke-linecap="round" font-style="normal" stroke-opacity="1" font-family="Sans Serif" font-size="31.75" stroke="#000000">
    <path fill-rule="evenodd" vector-effect="none" d="M120,280 L120,335"/>
   </g>
   <g fill="none" transform="matrix(1,0,0,1,2100,1485)" stroke-linejoin="bevel" stroke-width="7" font-weight="400" stroke-linecap="round" font-style="normal" stroke-opacity="1" font-family="Sans Serif" font-size="31.75" stroke="#000000">
    <path fill-rule="evenodd" vector-effect="none" d="M-300,335 L-300,280"/>
   </g>
   <g fill="none" transform="matrix(1,0,0,1,2100,1485)" stroke-linejoin="bevel" stroke-width="7" font-weight="400" stroke-linecap="round" font-style="normal" stroke-opacity="1" font-family="Sans Serif" font-size="31.75" stroke="#000000">
    <path fill-rule="evenodd" vector-effect="none" d="M105,280 L120,280"/>
   </g>
   <g fill="none" transform="matrix(1,0,0,1,2100,1485)" stroke-linejoin="bevel" stroke-width="7" font-weight="400" stroke-linecap="round" font-style="normal" stroke-opacity="1" font-family="Sans Serif" font-size="31.75" stroke="#000000">
    <path fill-rule="evenodd" vector-effect="none" d="M-400,335 L-300,335"/>
   </g>
   <g fill="none" transform="matrix(1,0,0,1,2100,1485)" stroke-linejoin="bevel" stroke-width="7" font-weight="400" stroke-linecap="round" font-style="normal" stroke-opacity="1" font-family="Sans Serif" font-size="31.75" stroke="#000000">
    <path fill-rule="evenodd" vector-effect="none" d="M105,235 L105,280"/>
   </g>
   <g fill="none" transform="matrix(1,0,0,1,2100,1485)" stroke-linejoin="bevel" stroke-width="7" font-weight="400" stroke-linecap="round" font-style="normal" stroke-opacity="1" font-family="Sans Serif" font-size="31.75" stroke="#000000">
    <path fill-rule="evenodd" vector-effect="none" d="M-400,335 L-400,-365"/>
   </g>
   <g fill="none" transform="matrix(1,0,0,1,2100,1485)" stroke-linejoin="bevel" stroke-width="7" font-weight="400" stroke-linecap="round" font-style="normal" stroke-opacity="1" font-family="Sans Serif" font-size="31.75" stroke="#000000">
    <path fill-rule="evenodd" vector-effect="none" d="M165,235 L105,235"/>
   </g>
   <g fill="none" transform="matrix(1,0,0,1,2100,1485)" stroke-linejoin="bevel" stroke-width="7" font-weight="400" stroke-linecap="round" font-style="normal" stroke-opacity="1" font-family="Sans Serif" font-size="31.75" stroke="#000000">
    <path fill-rule="evenodd" vector-effect="none" d="M-400,-365 L400,-365"/>
   </g>
   <g fill="none" transform="matrix(1,0,0,1,2100,1485)" stroke-linejoin="bevel" stroke-width="7" font-weight="400" stroke-linecap="round" font-style="normal" stroke-opacity="1" font-family="Sans Serif" font-size="31.75" stroke="#000000">
    <path fill-rule="evenodd" vector-effect="none" d="M165,280 L165,235"/>
   </g>
   <g fill="none" transform="matrix(1,0,0,1,2100,1485)" stroke-linejoin="bevel" stroke-width="7" font-weight="400" stroke-linecap="round" font-style="normal" stroke-opacity="1" font-family="Sans Serif" font-size="31.75" stroke="#000000">
    <path fill-rule="evenodd" vector-effect="none" d="M400,-365 L400,335"/>
   </g>
   <g fill="none" transform="matrix(1,0,0,1,2100,1485)" stroke-linejoin="bevel" stroke-width="7" font-weight="400" stroke-linecap="round" font-style="normal" stroke-opacity="1" font-family="Sans Serif" font-size="31.75" stroke="#000000">
    <path fill-rule="evenodd" vector-effect="none" d="M150,280 L165,280"/>
   </g>
   <g fill="none" transform="matrix(1,0,0,1,2100,1485)" stroke-linejoin="bevel" stroke-width="7" font-weight="400" stroke-linecap="round" font-style="normal" stroke-opacity="1" font-family="Sans Serif" font-size="31.75" stroke="#000000">
    <path fill-rule="evenodd" vector-effect="none" d="M400,335 L150,335"/>
   </g>
   <g fill="none" transform="matrix(1,0,0,1,2100,1485)" stroke-linejoin="bevel" stroke-width="7" font-weight="400" stroke-linecap="round" font-style="normal" stroke-opacity="1" font-family="Sans Serif" font-size="31.75" stroke="#000000">
    <path fill-rule="evenodd" vector-effect="none" d="M150,335 L150,280"/>
   </g>
   <g fill="none" transform="matrix(1,0,0,1,2100,1485)" stroke-linejoin="bevel" stroke-width="7" font-weight="400" stroke-linecap="round" font-style="normal" stroke-opacity="1" font-family="Sans Serif" font-size="31.75" stroke="#000000">
    <path fill-rule="evenodd" vector-effect="none" d="M-130,35 L-130,295"/>
   </g>
   <g fill="none" transform="matrix(1,0,0,1,2100,1485)" stroke-linejoin="bevel" stroke-width="7" font-weight="400" stroke-linecap="round" font-style="normal" stroke-opacity="1" font-family="Sans Serif" font-size="31.75" stroke="#000000">
    <path fill-rule="evenodd" vector-effect="none" d="M-100,35 L-130,35"/>
   </g>
   <g fill="none" transform="matrix(1,0,0,1,2100,1485)" stroke-linejoin="bevel" stroke-width="7" font-weight="400" stroke-linecap="round" font-style="normal" stroke-opacity="1" font-family="Sans Serif" font-size="31.75" stroke="#000000">
    <path fill-rule="evenodd" vector-effect="none" d="M-130,295 L-100,295"/>
   </g>
   <g fill="none" transform="matrix(1,0,0,1,2100,1485)" stroke-linejoin="bevel" stroke-width="7" font-weight="400" stroke-linecap="round" font-style="normal" stroke-opacity="1" font-family="Sans Serif" font-size="31.75" stroke="#000000">
    <path fill-rule="evenodd" vector-effect="none" d="M-100,295 L-100,35"/>
   </g>
   <g fill="none" transform="matrix(1,0,0,1,2100,1485)" stroke-linejoin="bevel" stroke-width="7" font-weight="400" stroke-linecap="round" font-style="normal" stroke-opacity="1" font-family="Sans Serif" font-size="31.75" stroke="#000000">
    <path fill-rule="evenodd" vector-effect="none" d="M-157.5,-128 C-157.5,-115.574 -167.574,-105.5 -180,-105.5 C-192.426,-105.5 -202.5,-115.574 -202.5,-128 C-202.5,-140.426 -192.426,-150.5 -180,-150.5 C-167.574,-150.5 -157.5,-140.426 -157.5,-128 "/>
   </g>
   <g fill="none" transform="matrix(1,0,0,1,2100,1485)" stroke-linejoin="bevel" stroke-width="7" font-weight="400" stroke-linecap="round" font-style="normal" stroke-opacity="1" font-family="Sans Serif" font-size="31.75" stroke="#000000">
    <path fill-rule="evenodd" vector-effect="none" d="M-100,5 C-100,13.2843 -106.716,20 -115,20 C-123.284,20 -130,13.2843 -130,5 C-130,-3.28427 -123.284,-10 -115,-10 C-106.716,-10 -100,-3.28427 -100,5 "/>
   </g>
   <g fill="none" transform="matrix(1,0,0,1,2100,1485)" stroke-linejoin="bevel" stroke-width="7" font-weight="400" stroke-linecap="round" font-style="normal" stroke-opacity="1" font-family="Sans Serif" font-size="31.75" stroke="#000000">
    <path fill-rule="evenodd" vector-effect="none" d="M-157.5,-227 C-157.5,-214.574 -167.574,-204.5 -180,-204.5 C-192.426,-204.5 -202.5,-214.574 -202.5,-227 C-202.5,-239.426 -192.426,-249.5 -180,-249.5 C-167.574,-249.5 -157.5,-239.426 -157.5,-227 "/>
   </g>
   <g fill="none" transform="matrix(1,0,0,1,2100,1485)" stroke-linejoin="bevel" stroke-width="7" font-weight="400" stroke-linecap="round" font-style="normal" stroke-opacity="1" font-family="Sans Serif" font-size="31.75" stroke="#000000">
    <path fill-rule="evenodd" vector-effect="none" d="M-140,-75 L-140,-167.5"/>
   </g>
   <g fill="none" transform="matrix(1,0,0,1,2100,1485)" stroke-linejoin="bevel" stroke-width="7" font-weight="400" stroke-linecap="round" font-style="normal" stroke-opacity="1" font-family="Sans Serif" font-size="31.75" stroke="#000000">
    <path fill-rule="evenodd" vector-effect="none" d="M-140,-75 L270,-75"/>
   </g>
   <g fill="none" transform="matrix(1,0,0,1,2100,1485)" stroke-linejoin="bevel" stroke-width="7" font-weight="400" stroke-linecap="round" font-style="normal" stroke-opacity="1" font-family="Sans Serif" font-size="31.75" stroke="#000000">
    <path fill-rule="evenodd" vector-effect="none" d="M-210,-167.5 L-140,-167.5"/>
   </g>
   <g fill="none" transform="matrix(1,0,0,1,2100,1485)" stroke-linejoin="bevel" stroke-width="7" font-weight="400" stroke-linecap="round" font-style="normal" stroke-opacity="1" font-family="Sans Serif" font-size="31.75" stroke="#000000">
    <path fill-rule="evenodd" vector-effect="none" d="M270,-75 L270,-167.5"/>
   </g>
   <g fill="none" transform="matrix(1,0,0,1,2100,1485)" stroke-linejoin="bevel" stroke-width="7" font-weight="400" stroke-linecap="round" font-style="normal" stroke-opacity="1" font-family="Sans Serif" font-size="31.75" stroke="#000000">
    <path fill-rule="evenodd" vector-effect="none" d="M-210,-187.5 L-210,-167.5"/>
   </g>
   <g fill="none" transform="matrix(1,0,0,1,2100,1485)" stroke-linejoin="bevel" stroke-width="7" font-weight="400" stroke-linecap="round" font-style="normal" stroke-opacity="1" font-family="Sans Serif" font-size="31.75" stroke="#000000">
    <path fill-rule="evenodd" vector-effect="none" d="M340,-167.5 L270,-167.5"/>
   </g>
   <g fill="none" transform="matrix(1,0,0,1,2100,1485)" stroke-linejoin="bevel" stroke-width="7" font-weight="400" stroke-linecap="round" font-style="normal" stroke-opacity="1" font-family="Sans Serif" font-size="31.75" stroke="#000000">
    <path fill-rule="evenodd" vector-effect="none" d="M-139.11,-187.5 L-210,-187.5"/>
   </g>
   <g fill="none" transform="matrix(1,0,0,1,2100,1485)" stroke-linejoin="bevel" stroke-width="7" font-weight="400" stroke-linecap="round" font-style="normal" stroke-opacity="1" font-family="Sans Serif" font-size="31.75" stroke="#000000">
    <path fill-rule="evenodd" vector-effect="none" d="M340,-187.5 L340,-167.5"/>
   </g>
   <g fill="none" transform="matrix(1,0,0,1,2100,1485)" stroke-linejoin="bevel" stroke-width="7" font-weight="400" stroke-linecap="round" font-style="normal" stroke-opacity="1" font-family="Sans Serif" font-size="31.75" stroke="#000000">
    <path fill-rule="evenodd" vector-effect="none" d="M-139.11,-280 L-139.11,-187.5"/>
   </g>
   <g fill="none" transform="matrix(1,0,0,1,2100,1485)" stroke-linejoin="bevel" stroke-width="7" font-weight="400" stroke-linecap="round" font-style="normal" stroke-opacity="1" font-family="Sans Serif" font-size="31.75" stroke="#000000">
    <path fill-rule="evenodd" vector-effect="none" d="M270.89,-187.5 L340,-187.5"/>
   </g>
   <g fill="none" transform="matrix(1,0,0,1,2100,1485)" stroke-linejoin="bevel" stroke-width="7" font-weight="400" stroke-linecap="round" font-style="normal" stroke-opacity="1" font-family="Sans Serif" font-size="31.75" stroke="#000000">
    <path fill-rule="evenodd" vector-effect="none" d="M270.89,-280 L-139.11,-280"/>
   </g>
   <g fill="none" transform="matrix(1,0,0,1,2100,1485)" stroke-linejoin="bevel" stroke-width="7" font-weight="400" stroke-linecap="round" font-style="normal" stroke-opacity="1" font-family="Sans Serif" font-size="31.75" stroke="#000000">
    <path fill-rule="evenodd" vector-effect="none" d="M270.89,-280 L270.89,-187.5"/>
   </g>
   <g fill="none" transform="matrix(1,0,0,1,2100,1485)" stroke-linejoin="bevel" stroke-width="7" font-weight="400" stroke-linecap="round" font-style="normal" stroke-opacity="1" font-family="Sans Serif" font-size="31.75" stroke="#000000">
    <path fill-rule="evenodd" vector-effect="none" d="M327.5,-128 C327.5,-115.574 317.426,-105.5 305,-105.5 C292.574,-105.5 282.5,-115.574 282.5,-128 C282.5,-140.426 292.574,-150.5 305,-150.5 C317.426,-150.5 327.5,-140.426 327.5,-128 "/>
   </g>
   <g fill="none" transform="matrix(1,0,0,1,2100,1485)" stroke-linejoin="bevel" stroke-width="7" font-weight="400" stroke-linecap="round" font-style="normal" stroke-opacity="1" font-family="Sans Serif" font-size="31.75" stroke="#000000">
    <path fill-rule="evenodd" vector-effect="none" d="M327.5,-227 C327.5,-214.574 317.426,-204.5 305,-204.5 C292.574,-204.5 282.5,-214.574 282.5,-227 C282.5,-239.426 292.574,-249.5 305,-249.5 C317.426,-249.5 327.5,-239.426 327.5,-227 "/>
   </g>
   <g fill="none" transform="matrix(1,0,0,1,2055.12,891.564)" stroke-linejoin="bevel" stroke-width="1" font-weight="400" stroke-linecap="square" font-style="normal" stroke-opacity="1" font-family="Sans Serif" font-size="31.75" stroke="#000000">
    <text y="70" xml:space="preserve" fill="#000000" fill-opacity="1" font-weight="400" font-style="normal" font-family="osifont" font-size="50" stroke="none" x="4">80</text>
   </g>
   <g fill="none" transform="matrix(1,0,0,1,2100,1485)" stroke-linejoin="bevel" stroke-width="3.5" font-weight="400" stroke-linecap="round" font-style="normal" stroke-opacity="1" font-family="Sans Serif" font-size="31.75" stroke="#000000">
    <path fill-rule="evenodd" vector-effect="none" d="M-400,-508.186 L400,-508.186 M400,-365 L400,-536.186 M-400,-365 L-400,-536.186"/>
   </g>
   <g fill="#000000" transform="matrix(1,0,0,1,2500,976.814)" stroke-linejoin="bevel" stroke-width="3.5" fill-opacity="1" font-weight="400" stroke-linecap="round" font-style="normal" stroke-opacity="1" font-family="Sans Serif" font-size="31.75" stroke="#000000">
    <path fill-rule="evenodd" vector-effect="none" d="M0,0 L-50,-8.33333 L-50,8.33333 L0,0"/>
   </g>
   <g fill="#000000" transform="matrix(1,0,0,1,1700,976.814)" stroke-linejoin="bevel" stroke-width="3.5" fill-opacity="1" font-weight="400" stroke-linecap="round" font-style="normal" stroke-opacity="1" font-family="Sans Serif" font-size="31.75" stroke="#000000">
    <path fill-rule="evenodd" vector-effect="none" d="M0,0 L50,8.33333 L50,-8.33333 L0,0"/>
   </g>
   <g fill="none" transform="matrix(1,0,0,1,1988.06,1921.35)" stroke-linejoin="bevel" stroke-width="1" font-weight="400" stroke-linecap="square" font-style="normal" stroke-opacity="1" font-family="Sans Serif" font-size="31.75" stroke="#000000">
    <text y="70" xml:space="preserve" fill="#000000" fill-opacity="1" font-weight="400" font-style="normal" font-family="osifont" font-size="50" stroke="none" x="4">36</text>
   </g>
   <g fill="none" transform="matrix(1,0,0,1,2100,1485)" stroke-linejoin="bevel" stroke-width="3.5" font-weight="400" stroke-linecap="round" font-style="normal" stroke-opacity="1" font-family="Sans Serif" font-size="31.75" stroke="#000000">
    <path fill-rule="evenodd" vector-effect="none" d="M-255,521.596 L105,521.596 M105,365 L105,549.596 M-255,365 L-255,549.596"/>
   </g>
   <g fill="#000000" transform="matrix(1,0,0,1,2205,2006.6)" stroke-linejoin="bevel" stroke-width="3.5" fill-opacity="1" font-weight="400" stroke-linecap="round" font-style="normal" stroke-opacity="1" font-family="Sans Serif" font-size="31.75" stroke="#000000">
    <path fill-rule="evenodd" vector-effect="none" d="M0,0 L-50,-8.33333 L-50,8.33333 L0,0"/>
   </g>
   <g fill="#000000" transform="matrix(1,0,0,1,1845,2006.6)" stroke-linejoin="bevel" stroke-width="3.5" fill-opacity="1" font-weight="400" stroke-linecap="round" font-style="normal" stroke-opacity="1" font-family="Sans Serif" font-size="31.75" stroke="#000000">
    <path fill-rule="evenodd" vector-effect="none" d="M0,0 L50,8.33333 L50,-8.33333 L0,0"/>
   </g>
   <g fill="none" transform="matrix(1,0,0,1,2140.04,988.32)" stroke-linejoin="bevel" stroke-width="1" font-weight="400" stroke-linecap="square" font-style="normal" stroke-opacity="1" font-family="Sans Serif" font-size="31.75" stroke="#000000">
    <text y="70" xml:space="preserve" fill="#000000" fill-opacity="1" font-weight="400" font-style="normal" font-family="osifont" font-size="50" stroke="none" x="4">41</text>
   </g>
   <g fill="none" transform="matrix(1,0,0,1,2100,1485)" stroke-linejoin="bevel" stroke-width="3.5" font-weight="400" stroke-linecap="round" font-style="normal" stroke-opacity="1" font-family="Sans Serif" font-size="31.75" stroke="#000000">
    <path fill-rule="evenodd" vector-effect="none" d="M270.89,-411.43 L-139.11,-411.43 M-139.11,-280 L-139.11,-439.43 M270.89,-280 L270.89,-439.43"/>
   </g>
   <g fill="#000000" transform="matrix(1,0,0,1,1960.89,1073.57)" stroke-linejoin="bevel" stroke-width="3.5" fill-opacity="1" font-weight="400" stroke-linecap="round" font-style="normal" stroke-opacity="1" font-family="Sans Serif" font-size="31.75" stroke="#000000">
    <path fill-rule="evenodd" vector-effect="none" d="M0,0 L50,8.33333 L50,-8.33333 L0,0"/>
   </g>
   <g fill="#000000" transform="matrix(1,0,0,1,2370.89,1073.57)" stroke-linejoin="bevel" stroke-width="3.5" fill-opacity="1" font-weight="400" stroke-linecap="round" font-style="normal" stroke-opacity="1" font-family="Sans Serif" font-size="31.75" stroke="#000000">
    <path fill-rule="evenodd" vector-effect="none" d="M0,0 L-50,-8.33333 L-50,8.33333 L0,0"/>
   </g>
   <g fill="none" transform="matrix(0,-1,1,0,2001.92,1668.12)" stroke-linejoin="bevel" stroke-width="1" font-weight="400" stroke-linecap="square" font-style="normal" stroke-opacity="1" font-family="Sans Serif" font-size="31.75" stroke="#000000">
    <text y="70" xml:space="preserve" fill="#000000" fill-opacity="1" font-weight="400" font-style="normal" font-family="osifont" font-size="50" stroke="none" x="4">26</text>
   </g>
   <g fill="none" transform="matrix(1,0,0,1,2100,1485)" stroke-linejoin="bevel" stroke-width="3.5" font-weight="400" stroke-linecap="round" font-style="normal" stroke-opacity="1" font-family="Sans Serif" font-size="31.75" stroke="#000000">
    <path fill-rule="evenodd" vector-effect="none" d="M-12.827,295 L-12.827,35 M-100,35 L15.173,35 M-100,295 L15.173,295"/>
   </g>
   <g fill="#000000" transform="matrix(1,0,0,1,2087.17,1520)" stroke-linejoin="bevel" stroke-width="3.5" fill-opacity="1" font-weight="400" stroke-linecap="round" font-style="normal" stroke-opacity="1" font-family="Sans Serif" font-size="31.75" stroke="#000000">
    <path fill-rule="evenodd" vector-effect="none" d="M0,0 L-8.33333,50 L8.33333,50 L0,0"/>
   </g>
   <g fill="#000000" transform="matrix(1,0,0,1,2087.17,1780)" stroke-linejoin="bevel" stroke-width="3.5" fill-opacity="1" font-weight="400" stroke-linecap="round" font-style="normal" stroke-opacity="1" font-family="Sans Serif" font-size="31.75" stroke="#000000">
    <path fill-rule="evenodd" vector-effect="none" d="M0,0 L8.33333,-50 L-8.33333,-50 L0,0"/>
   </g>
   <g fill="none" transform="matrix(0,-1,1,0,3169.87,1462.26)" stroke-linejoin="bevel" stroke-width="1" font-weight="400" stroke-linecap="square" font-style="normal" stroke-opacity="1" font-family="Sans Serif" font-size="31.75" stroke="#000000">
    <text y="70" xml:space="preserve" fill="#000000" fill-opacity="1" font-weight="400" font-style="normal" font-family="osifont" font-size="50" stroke="none" x="4">70</text>
   </g>
   <g fill="none" transform="matrix(1,0,0,1,2100,1485)" stroke-linejoin="bevel" stroke-width="3.5" font-weight="400" stroke-linecap="round" font-style="normal" stroke-opacity="1" font-family="Sans Serif" font-size="31.75" stroke="#000000">
    <path fill-rule="evenodd" vector-effect="none" d="M1155.12,-365 L1155.12,335 M400,335 L1183.12,335 M400,-365 L1183.12,-365"/>
   </g>
   <g fill="#000000" transform="matrix(1,0,0,1,3255.12,1820)" stroke-linejoin="bevel" stroke-width="3.5" fill-opacity="1" font-weight="400" stroke-linecap="round" font-style="normal" stroke-opacity="1" font-family="Sans Serif" font-size="31.75" stroke="#000000">
    <path fill-rule="evenodd" vector-effect="none" d="M0,0 L8.33333,-50 L-8.33333,-50 L0,0"/>
   </g>
   <g fill="#000000" transform="matrix(1,0,0,1,3255.12,1120)" stroke-linejoin="bevel" stroke-width="3.5" fill-opacity="1" font-weight="400" stroke-linecap="round" font-style="normal" stroke-opacity="1" font-family="Sans Serif" font-size="31.75" stroke="#000000">
    <path fill-rule="evenodd" vector-effect="none" d="M0,0 L-8.33333,50 L8.33333,50 L0,0"/>
   </g>
   <g fill="none" transform="matrix(0,-1,1,0,2131.45,1342.39)" stroke-linejoin="bevel" stroke-width="1" font-weight="400" stroke-linecap="square" font-style="normal" stroke-opacity="1" font-family="Sans Serif" font-size="31.75" stroke="#000000">
    <text y="70" xml:space="preserve" fill="#000000" fill-opacity="1" font-weight="400" font-style="normal" font-family="osifont" font-size="50" stroke="none" x="4">20.5</text>
   </g>
   <g fill="none" transform="matrix(1,0,0,1,2100,1485)" stroke-linejoin="bevel" stroke-width="3.5" font-weight="400" stroke-linecap="round" font-style="normal" stroke-opacity="1" font-family="Sans Serif" font-size="31.75" stroke="#000000">
    <path fill-rule="evenodd" vector-effect="none" d="M116.704,-280 L116.704,-75 M-139.11,-75 L144.704,-75 M-139.11,-280 L144.704,-280"/>
   </g>
   <g fill="#000000" transform="matrix(1,0,0,1,2216.7,1410)" stroke-linejoin="bevel" stroke-width="3.5" fill-opacity="1" font-weight="400" stroke-linecap="round" font-style="normal" stroke-opacity="1" font-family="Sans Serif" font-size="31.75" stroke="#000000">
    <path fill-rule="evenodd" vector-effect="none" d="M0,0 L8.33333,-50 L-8.33333,-50 L0,0"/>
   </g>
   <g fill="#000000" transform="matrix(1,0,0,1,2216.7,1205)" stroke-linejoin="bevel" stroke-width="3.5" fill-opacity="1" font-weight="400" stroke-linecap="round" font-style="normal" stroke-opacity="1" font-family="Sans Serif" font-size="31.75" stroke="#000000">
    <path fill-rule="evenodd" vector-effect="none" d="M0,0 L-8.33333,50 L8.33333,50 L0,0"/>
   </g>
   <g fill="none" transform="matrix(0.999818,0.0190804,-0.0190804,0.999818,2061.83,1405.45)" stroke-linejoin="bevel" stroke-width="1" font-weight="400" stroke-linecap="square" font-style="normal" stroke-opacity="1" font-family="Sans Serif" font-size="31.75" stroke="#000000">
    <text y="70" xml:space="preserve" fill="#000000" fill-opacity="1" font-weight="400" font-style="normal" font-family="osifont" font-size="50" stroke="none" x="4">⌀3</text>
   </g>
   <g fill="none" transform="matrix(1,0,0,1,2100,1485)" stroke-linejoin="bevel" stroke-width="3.5" font-weight="400" stroke-linecap="round" font-style="normal" stroke-opacity="1" font-family="Sans Serif" font-size="31.75" stroke="#000000">
    <path fill-rule="evenodd" vector-effect="none" d="M-229.979,2.80576 L25.7289,7.68565"/>
   </g>
   <g fill="#000000" transform="matrix(1,0,0,1,2000,1490.29)" stroke-linejoin="bevel" stroke-width="3.5" fill-opacity="1" font-weight="400" stroke-linecap="round" font-style="normal" stroke-opacity="1" font-family="Sans Serif" font-size="31.75" stroke="#000000">
    <path fill-rule="evenodd" vector-effect="none" d="M0,0 L49.8319,9.28583 L50.1499,-7.3778 L0,0"/>
   </g>
   <g fill="#000000" transform="matrix(1,0,0,1,1970,1489.71)" stroke-linejoin="bevel" stroke-width="3.5" fill-opacity="1" font-weight="400" stroke-linecap="round" font-style="normal" stroke-opacity="1" font-family="Sans Serif" font-size="31.75" stroke="#000000">
    <path fill-rule="evenodd" vector-effect="none" d="M0,0 L-49.8319,-9.28583 L-50.1499,7.3778 L0,0"/>
   </g>
   <g fill="none" transform="matrix(0.999839,-0.0179493,0.0179493,0.999839,2535.32,1169.65)" stroke-linejoin="bevel" stroke-width="1" font-weight="400" stroke-linecap="square" font-style="normal" stroke-opacity="1" font-family="Sans Serif" font-size="31.75" stroke="#000000">
    <text y="70" xml:space="preserve" fill="#000000" fill-opacity="1" font-weight="400" font-style="normal" font-family="osifont" font-size="50" stroke="none" x="4">⌀4.5</text>
   </g>
   <g fill="none" transform="matrix(1,0,0,1,2100,1485)" stroke-linejoin="bevel" stroke-width="3.5" font-weight="400" stroke-linecap="round" font-style="normal" stroke-opacity="1" font-family="Sans Serif" font-size="31.75" stroke="#000000">
    <path fill-rule="evenodd" vector-effect="none" d="M182.52,-224.801 L539.052,-231.202"/>
   </g>
   <g fill="#000000" transform="matrix(1,0,0,1,2427.5,1257.6)" stroke-linejoin="bevel" stroke-width="3.5" fill-opacity="1" font-weight="400" stroke-linecap="round" font-style="normal" stroke-opacity="1" font-family="Sans Serif" font-size="31.75" stroke="#000000">
    <path fill-rule="evenodd" vector-effect="none" d="M0,0 L50.1415,7.43452 L49.8424,-9.22946 L0,0"/>
   </g>
   <g fill="#000000" transform="matrix(1,0,0,1,2382.5,1258.4)" stroke-linejoin="bevel" stroke-width="3.5" fill-opacity="1" font-weight="400" stroke-linecap="round" font-style="normal" stroke-opacity="1" font-family="Sans Serif" font-size="31.75" stroke="#000000">
    <path fill-rule="evenodd" vector-effect="none" d="M0,0 L-50.1415,-7.43452 L-49.8424,9.22946 L0,0"/>
   </g>
   <g fill="none" transform="matrix(1,0,0,1,1800.35,1589.41)" stroke-linejoin="bevel" stroke-width="1" font-weight="400" stroke-linecap="square" font-style="normal" stroke-opacity="1" font-family="Sans Serif" font-size="31.75" stroke="#000000">
    <text y="70" xml:space="preserve" fill="#000000" fill-opacity="1" font-weight="400" font-style="normal" font-family="osifont" font-size="50" stroke="none" x="4">6</text>
   </g>
   <g fill="none" transform="matrix(1,0,0,1,2100,1485)" stroke-linejoin="bevel" stroke-width="3.5" font-weight="400" stroke-linecap="round" font-style="normal" stroke-opacity="1" font-family="Sans Serif" font-size="31.75" stroke="#000000">
    <path fill-rule="evenodd" vector-effect="none" d="M-215,189.662 L-355,189.662 M-315,235 L-315,161.662 M-255,235 L-255,161.662"/>
   </g>
   <g fill="#000000" transform="matrix(1,0,0,1,1785,1674.66)" stroke-linejoin="bevel" stroke-width="3.5" fill-opacity="1" font-weight="400" stroke-linecap="round" font-style="normal" stroke-opacity="1" font-family="Sans Serif" font-size="31.75" stroke="#000000">
    <path fill-rule="evenodd" vector-effect="none" d="M0,0 L50,8.33333 L50,-8.33333 L0,0"/>
   </g>
   <g fill="#000000" transform="matrix(1,0,0,1,1845,1674.66)" stroke-linejoin="bevel" stroke-width="3.5" fill-opacity="1" font-weight="400" stroke-linecap="round" font-style="normal" stroke-opacity="1" font-family="Sans Serif" font-size="31.75" stroke="#000000">
    <path fill-rule="evenodd" vector-effect="none" d="M0,0 L-50,-8.33333 L-50,8.33333 L0,0"/>
   </g>
   <g fill="none" transform="matrix(0,-1,1,0,1555.47,1792.33)" stroke-linejoin="bevel" stroke-width="1" font-weight="400" stroke-linecap="square" font-style="normal" stroke-opacity="1" font-family="Sans Serif" font-size="31.75" stroke="#000000">
    <text y="70" xml:space="preserve" fill="#000000" fill-opacity="1" font-weight="400" font-style="normal" font-family="osifont" font-size="50" stroke="none" x="4">10</text>
   </g>
   <g fill="none" transform="matrix(1,0,0,1,2100,1485)" stroke-linejoin="bevel" stroke-width="3.5" font-weight="400" stroke-linecap="round" font-style="normal" stroke-opacity="1" font-family="Sans Serif" font-size="31.75" stroke="#000000">
    <path fill-rule="evenodd" vector-effect="none" d="M-459.284,235 L-459.284,335 M-315,335 L-487.284,335 M-315,235 L-487.284,235"/>
   </g>
   <g fill="#000000" transform="matrix(1,0,0,1,1640.72,1820)" stroke-linejoin="bevel" stroke-width="3.5" fill-opacity="1" font-weight="400" stroke-linecap="round" font-style="normal" stroke-opacity="1" font-family="Sans Serif" font-size="31.75" stroke="#000000">
    <path fill-rule="evenodd" vector-effect="none" d="M0,0 L8.33333,-50 L-8.33333,-50 L0,0"/>
   </g>
   <g fill="#000000" transform="matrix(1,0,0,1,1640.72,1720)" stroke-linejoin="bevel" stroke-width="3.5" fill-opacity="1" font-weight="400" stroke-linecap="round" font-style="normal" stroke-opacity="1" font-family="Sans Serif" font-size="31.75" stroke="#000000">
    <path fill-rule="evenodd" vector-effect="none" d="M0,0 L-8.33333,50 L8.33333,50 L0,0"/>
   </g>
   <g fill="none" transform="matrix(1,0,0,1,1871.34,989.601)" stroke-linejoin="bevel" stroke-width="1" font-weight="400" stroke-linecap="square" font-style="normal" stroke-opacity="1" font-family="Sans Serif" font-size="31.75" stroke="#000000">
    <text y="70" xml:space="preserve" fill="#000000" fill-opacity="1" font-weight="400" font-style="normal" font-family="osifont" font-size="50" stroke="none" x="4">7.09</text>
   </g>
   <g fill="none" transform="matrix(1,0,0,1,2100,1485)" stroke-linejoin="bevel" stroke-width="3.5" font-weight="400" stroke-linecap="round" font-style="normal" stroke-opacity="1" font-family="Sans Serif" font-size="31.75" stroke="#000000">
    <path fill-rule="evenodd" vector-effect="none" d="M-39.1101,-410.149 L-310,-410.149 M-210,-187.5 L-210,-438.149 M-139.11,-187.5 L-139.11,-438.149"/>
   </g>
   <g fill="#000000" transform="matrix(1,0,0,1,1890,1074.85)" stroke-linejoin="bevel" stroke-width="3.5" fill-opacity="1" font-weight="400" stroke-linecap="round" font-style="normal" stroke-opacity="1" font-family="Sans Serif" font-size="31.75" stroke="#000000">
    <path fill-rule="evenodd" vector-effect="none" d="M0,0 L-50,-8.33333 L-50,8.33333 L0,0"/>
   </g>
   <g fill="#000000" transform="matrix(1,0,0,1,1960.89,1074.85)" stroke-linejoin="bevel" stroke-width="3.5" fill-opacity="1" font-weight="400" stroke-linecap="round" font-style="normal" stroke-opacity="1" font-family="Sans Serif" font-size="31.75" stroke="#000000">
    <path fill-rule="evenodd" vector-effect="none" d="M0,0 L50,8.33333 L50,-8.33333 L0,0"/>
   </g>
   <g fill="#ffffff" transform="matrix(1,0,0,1,3050,1485)" fill-opacity="1" font-weight="400" font-style="normal" font-family="Sans Serif" font-size="31.75" stroke="none">
    <path fill-rule="evenodd" vector-effect="non-scaling-stroke" d="M15,335 L15,365 L-15,365 L-15,335 L-15,-365 L15,-365 L15,335"/>
   </g>
   <g fill="#ffffff" transform="matrix(1,0,0,1,3050,1485)" fill-opacity="1" font-weight="400" font-style="normal" font-family="Sans Serif" font-size="31.75" stroke="none">
    <path fill-rule="evenodd" vector-effect="non-scaling-stroke" d="M-15,335 L15,335 L15,-365 L-15,-365 L-15,335"/>
   </g>
   <g fill="#ffffff" transform="matrix(1,0,0,1,3050,1485)" fill-opacity="1" font-weight="400" font-style="normal" font-family="Sans Serif" font-size="31.75" stroke="none">
    <path fill-rule="evenodd" vector-effect="non-scaling-stroke" d="M-15,335 L15,335 L15,365 L-15,365 L-15,335"/>
   </g>
   <g fill="none" transform="matrix(1,0,0,1,3050,1485)" stroke-linejoin="bevel" stroke-width="7" font-weight="400" stroke-linecap="round" font-style="normal" stroke-opacity="1" font-family="Sans Serif" font-size="31.75" stroke="#000000">
    <path fill-rule="evenodd" vector-effect="none" d="M-15,335 L-15,365"/>
   </g>
   <g fill="none" transform="matrix(1,0,0,1,3050,1485)" stroke-linejoin="bevel" stroke-width="7" font-weight="400" stroke-linecap="round" font-style="normal" stroke-opacity="1" font-family="Sans Serif" font-size="31.75" stroke="#000000">
    <path fill-rule="evenodd" vector-effect="none" d="M-15,335 L-15,-365"/>
   </g>
   <g fill="none" transform="matrix(1,0,0,1,3050,1485)" stroke-linejoin="bevel" stroke-width="7" font-weight="400" stroke-linecap="round" font-style="normal" stroke-opacity="1" font-family="Sans Serif" font-size="31.75" stroke="#000000">
    <path fill-rule="evenodd" vector-effect="none" d="M15,335 L15,365"/>
   </g>
   <g fill="none" transform="matrix(1,0,0,1,3050,1485)" stroke-linejoin="bevel" stroke-width="7" font-weight="400" stroke-linecap="round" font-style="normal" stroke-opacity="1" font-family="Sans Serif" font-size="31.75" stroke="#000000">
    <path fill-rule="evenodd" vector-effect="none" d="M15,335 L15,-365"/>
   </g>
   <g fill="none" transform="matrix(1,0,0,1,3050,1485)" stroke-linejoin="bevel" stroke-width="7" font-weight="400" stroke-linecap="round" font-style="normal" stroke-opacity="1" font-family="Sans Serif" font-size="31.75" stroke="#000000">
    <path fill-rule="evenodd" vector-effect="none" d="M-15,365 L15,365"/>
   </g>
   <g fill="none" transform="matrix(1,0,0,1,3050,1485)" stroke-linejoin="bevel" stroke-width="7" font-weight="400" stroke-linecap="round" font-style="normal" stroke-opacity="1" font-family="Sans Serif" font-size="31.75" stroke="#000000">
    <path fill-rule="evenodd" vector-effect="none" d="M-15,335 L15,335"/>
   </g>
   <g fill="none" transform="matrix(1,0,0,1,3050,1485)" stroke-linejoin="bevel" stroke-width="7" font-weight="400" stroke-linecap="round" font-style="normal" stroke-opacity="1" font-family="Sans Serif" font-size="31.75" stroke="#000000">
    <path fill-rule="evenodd" vector-effect="none" d="M-15,-365 L15,-365"/>
   </g>
   <g fill="none" transform="matrix(1,0,0,1,3035.29,987.573)" stroke-linejoin="bevel" stroke-width="1" font-weight="400" stroke-linecap="square" font-style="normal" stroke-opacity="1" font-family="Sans Serif" font-size="31.75" stroke="#000000">
    <text y="70" xml:space="preserve" fill="#000000" fill-opacity="1" font-weight="400" font-style="normal" font-family="osifont" font-size="50" stroke="none" x="4">3</text>
   </g>
   <g fill="none" transform="matrix(1,0,0,1,3050,1485)" stroke-linejoin="bevel" stroke-width="3.5" font-weight="400" stroke-linecap="round" font-style="normal" stroke-opacity="1" font-family="Sans Serif" font-size="31.75" stroke="#000000">
    <path fill-rule="evenodd" vector-effect="none" d="M-115,-412.177 L115,-412.177 M15,-365 L15,-440.177 M-15,-365 L-15,-440.177"/>
   </g>
   <g fill="#000000" transform="matrix(1,0,0,1,3065,1072.82)" stroke-linejoin="bevel" stroke-width="3.5" fill-opacity="1" font-weight="400" stroke-linecap="round" font-style="normal" stroke-opacity="1" font-family="Sans Serif" font-size="31.75" stroke="#000000">
    <path fill-rule="evenodd" vector-effect="none" d="M0,0 L50,8.33333 L50,-8.33333 L0,0"/>
   </g>
   <g fill="#000000" transform="matrix(1,0,0,1,3035,1072.82)" stroke-linejoin="bevel" stroke-width="3.5" fill-opacity="1" font-weight="400" stroke-linecap="round" font-style="normal" stroke-opacity="1" font-family="Sans Serif" font-size="31.75" stroke="#000000">
    <path fill-rule="evenodd" vector-effect="none" d="M0,0 L-50,-8.33333 L-50,8.33333 L0,0"/>
   </g>
   <g fill="none" transform="matrix(0,-1,1,0,3169.67,1907.76)" stroke-linejoin="bevel" stroke-width="1" font-weight="400" stroke-linecap="square" font-style="normal" stroke-opacity="1" font-family="Sans Serif" font-size="31.75" stroke="#000000">
    <text y="70" xml:space="preserve" fill="#000000" fill-opacity="1" font-weight="400" font-style="normal" font-family="osifont" font-size="50" stroke="none" x="4">3</text>
   </g>
   <g fill="none" transform="matrix(1,0,0,1,3050,1485)" stroke-linejoin="bevel" stroke-width="3.5" font-weight="400" stroke-linecap="round" font-style="normal" stroke-opacity="1" font-family="Sans Serif" font-size="31.75" stroke="#000000">
    <path fill-rule="evenodd" vector-effect="none" d="M204.925,235 L204.925,465 M15,365 L232.925,365 M15,335 L232.925,335"/>
   </g>
   <g fill="#000000" transform="matrix(1,0,0,1,3254.92,1850)" stroke-linejoin="bevel" stroke-width="3.5" fill-opacity="1" font-weight="400" stroke-linecap="round" font-style="normal" stroke-opacity="1" font-family="Sans Serif" font-size="31.75" stroke="#000000">
    <path fill-rule="evenodd" vector-effect="none" d="M0,0 L-8.33333,50 L8.33333,50 L0,0"/>
   </g>
   <g fill="#000000" transform="matrix(1,0,0,1,3254.92,1820)" stroke-linejoin="bevel" stroke-width="3.5" fill-opacity="1" font-weight="400" stroke-linecap="round" font-style="normal" stroke-opacity="1" font-family="Sans Serif" font-size="31.75" stroke="#000000">
    <path fill-rule="evenodd" vector-effect="none" d="M0,0 L8.33333,-50 L-8.33333,-50 L0,0"/>
   </g>
  </g>
 </g>
</svg>
