<?xml version='1.0' encoding='UTF-8' standalone='no'?>
<svg xmlns:freecad="http://www.freecadweb.org/wiki/index.php?title=Svg_Namespace" version="1.2" height="297mm" width="420mm" xmlns:dc="http://purl.org/dc/elements/1.1/" xmlns:rdf="http://www.w3.org/1999/02/22-rdf-syntax-ns#" xmlns:cc="http://creativecommons.org/ns#" xmlns:inkscape="http://www.inkscape.org/namespaces/inkscape" viewBox="0 0 4200 2970" xmlns:xlink="http://www.w3.org/1999/xlink" baseProfile="tiny" xmlns="http://www.w3.org/2000/svg" xmlns:sodipodi="http://sodipodi.sourceforge.net/DTD/sodipodi-0.dtd" xmlns:svg="http://www.w3.org/2000/svg">
 <title>FreeCAD SVG Export</title>
 <desc>Drawing page: Page004 exported from FreeCAD document: Alpha</desc>
 <defs/>
 <g inkscape:label="TechDraw" inkscape:groupmode="layer" id="Page004">
  <g fill-rule="evenodd" fill="none" stroke-linejoin="bevel" stroke-width="1" stroke-linecap="square" stroke="black" id="DrawingContent">
   <g fill="none" transform="matrix(1,0,0,1,1730.27,1257.48)" stroke-linejoin="bevel" stroke-width="1" font-weight="400" stroke-linecap="square" font-style="normal" stroke-opacity="1" font-family="Sans Serif" font-size="31.75" stroke="#000000">
    <rect y="0" height="0" width="0" x="0"/>
   </g>
   <g fill="#ffffff" transform="matrix(1,0,0,1,1730.27,1257.48)" fill-opacity="1" font-weight="400" font-style="normal" font-family="Sans Serif" font-size="31.75" stroke="none">
    <path fill-rule="evenodd" vector-effect="non-scaling-stroke" d="M1300,-400 L1300,400 L-1300,400 L-1300,-400 L1300,-400"/>
   </g>
   <g fill="#ffffff" transform="matrix(1,0,0,1,1730.27,1257.48)" fill-opacity="1" font-weight="400" font-style="normal" font-family="Sans Serif" font-size="31.75" stroke="none">
    <path fill-rule="evenodd" vector-effect="non-scaling-stroke" d="M832.5,150 C832.5,195.563 795.563,232.5 750,232.5 C704.437,232.5 667.5,195.563 667.5,150 C667.5,104.437 704.437,67.5 750,67.5 C795.563,67.5 832.5,104.437 832.5,150 "/>
   </g>
   <g fill="#ffffff" transform="matrix(1,0,0,1,1730.27,1257.48)" fill-opacity="1" font-weight="400" font-style="normal" font-family="Sans Serif" font-size="31.75" stroke="none">
    <path fill-rule="evenodd" vector-effect="non-scaling-stroke" d="M-120,255 L-120,-105 L-150,-105 L-150,255 L-120,255"/>
   </g>
   <g fill="#ffffff" transform="matrix(1,0,0,1,1730.27,1257.48)" fill-opacity="1" font-weight="400" font-style="normal" font-family="Sans Serif" font-size="31.75" stroke="none">
    <path fill-rule="evenodd" vector-effect="non-scaling-stroke" d="M80,100 L80,130 L-80,130 L-80,100 L80,100"/>
   </g>
   <g fill="#ffffff" transform="matrix(1,0,0,1,1730.27,1257.48)" fill-opacity="1" font-weight="400" font-style="normal" font-family="Sans Serif" font-size="31.75" stroke="none">
    <path fill-rule="evenodd" vector-effect="non-scaling-stroke" d="M22.5,-300 C22.5,-287.574 12.4264,-277.5 0,-277.5 C-12.4264,-277.5 -22.5,-287.574 -22.5,-300 C-22.5,-312.426 -12.4264,-322.5 0,-322.5 C12.4264,-322.5 22.5,-312.426 22.5,-300 "/>
   </g>
   <g fill="#ffffff" transform="matrix(1,0,0,1,1730.27,1257.48)" fill-opacity="1" font-weight="400" font-style="normal" font-family="Sans Serif" font-size="31.75" stroke="none">
    <path fill-rule="evenodd" vector-effect="non-scaling-stroke" d="M1222.5,250 C1222.5,262.426 1212.43,272.5 1200,272.5 C1187.57,272.5 1177.5,262.426 1177.5,250 C1177.5,237.574 1187.57,227.5 1200,227.5 C1212.43,227.5 1222.5,237.574 1222.5,250 "/>
   </g>
   <g fill="#ffffff" transform="matrix(1,0,0,1,1730.27,1257.48)" fill-opacity="1" font-weight="400" font-style="normal" font-family="Sans Serif" font-size="31.75" stroke="none">
    <path fill-rule="evenodd" vector-effect="non-scaling-stroke" d="M-1177.5,250 C-1177.5,262.426 -1187.57,272.5 -1200,272.5 C-1212.43,272.5 -1222.5,262.426 -1222.5,250 C-1222.5,237.574 -1212.43,227.5 -1200,227.5 C-1187.57,227.5 -1177.5,237.574 -1177.5,250 "/>
   </g>
   <g fill="#ffffff" transform="matrix(1,0,0,1,1730.27,1257.48)" fill-opacity="1" font-weight="400" font-style="normal" font-family="Sans Serif" font-size="31.75" stroke="none">
    <path fill-rule="evenodd" vector-effect="non-scaling-stroke" d="M-927.5,-300 C-927.5,-287.574 -937.574,-277.5 -950,-277.5 C-962.426,-277.5 -972.5,-287.574 -972.5,-300 C-972.5,-312.426 -962.426,-322.5 -950,-322.5 C-937.574,-322.5 -927.5,-312.426 -927.5,-300 "/>
   </g>
   <g fill="#ffffff" transform="matrix(1,0,0,1,1730.27,1257.48)" fill-opacity="1" font-weight="400" font-style="normal" font-family="Sans Serif" font-size="31.75" stroke="none">
    <path fill-rule="evenodd" vector-effect="non-scaling-stroke" d="M972.5,-300 C972.5,-287.574 962.426,-277.5 950,-277.5 C937.574,-277.5 927.5,-287.574 927.5,-300 C927.5,-312.426 937.574,-322.5 950,-322.5 C962.426,-322.5 972.5,-312.426 972.5,-300 "/>
   </g>
   <g fill="#ffffff" transform="matrix(1,0,0,1,1730.27,1257.48)" fill-opacity="1" font-weight="400" font-style="normal" font-family="Sans Serif" font-size="31.75" stroke="none">
    <path fill-rule="evenodd" vector-effect="non-scaling-stroke" d="M125,115 C125,123.284 118.284,130 110,130 C101.716,130 95,123.284 95,115 C95,106.716 101.716,100 110,100 C118.284,100 125,106.716 125,115 "/>
   </g>
   <g fill="#ffffff" transform="matrix(1,0,0,1,1730.27,1257.48)" fill-opacity="1" font-weight="400" font-style="normal" font-family="Sans Serif" font-size="31.75" stroke="none">
    <path fill-rule="evenodd" vector-effect="non-scaling-stroke" d="M-120,285 C-120,293.284 -126.716,300 -135,300 C-143.284,300 -150,293.284 -150,285 C-150,276.716 -143.284,270 -135,270 C-126.716,270 -120,276.716 -120,285 "/>
   </g>
   <g fill="#ffffff" transform="matrix(1,0,0,1,1730.27,1257.48)" fill-opacity="1" font-weight="400" font-style="normal" font-family="Sans Serif" font-size="31.75" stroke="none">
    <path fill-rule="evenodd" vector-effect="non-scaling-stroke" d="M-120,-135 C-120,-126.716 -126.716,-120 -135,-120 C-143.284,-120 -150,-126.716 -150,-135 C-150,-143.284 -143.284,-150 -135,-150 C-126.716,-150 -120,-143.284 -120,-135 "/>
   </g>
   <g fill="none" transform="matrix(1,0,0,1,1730.27,1257.48)" stroke-linejoin="bevel" stroke-width="7" font-weight="400" stroke-linecap="round" font-style="normal" stroke-opacity="1" font-family="Sans Serif" font-size="31.75" stroke="#000000">
    <path fill-rule="evenodd" vector-effect="none" d="M-1300,400 L-1300,-400"/>
   </g>
   <g fill="none" transform="matrix(1,0,0,1,1730.27,1257.48)" stroke-linejoin="bevel" stroke-width="7" font-weight="400" stroke-linecap="round" font-style="normal" stroke-opacity="1" font-family="Sans Serif" font-size="31.75" stroke="#000000">
    <path fill-rule="evenodd" vector-effect="none" d="M1300,400 L-1300,400"/>
   </g>
   <g fill="none" transform="matrix(1,0,0,1,1730.27,1257.48)" stroke-linejoin="bevel" stroke-width="7" font-weight="400" stroke-linecap="round" font-style="normal" stroke-opacity="1" font-family="Sans Serif" font-size="31.75" stroke="#000000">
    <path fill-rule="evenodd" vector-effect="none" d="M-1300,-400 L1300,-400"/>
   </g>
   <g fill="none" transform="matrix(1,0,0,1,1730.27,1257.48)" stroke-linejoin="bevel" stroke-width="7" font-weight="400" stroke-linecap="round" font-style="normal" stroke-opacity="1" font-family="Sans Serif" font-size="31.75" stroke="#000000">
    <path fill-rule="evenodd" vector-effect="none" d="M1300,-400 L1300,400"/>
   </g>
   <g fill="none" transform="matrix(1,0,0,1,1730.27,1257.48)" stroke-linejoin="bevel" stroke-width="7" font-weight="400" stroke-linecap="round" font-style="normal" stroke-opacity="1" font-family="Sans Serif" font-size="31.75" stroke="#000000">
    <path fill-rule="evenodd" vector-effect="none" d="M1222.5,250 C1222.5,262.426 1212.43,272.5 1200,272.5 C1187.57,272.5 1177.5,262.426 1177.5,250 C1177.5,237.574 1187.57,227.5 1200,227.5 C1212.43,227.5 1222.5,237.574 1222.5,250 "/>
   </g>
   <g fill="none" transform="matrix(1,0,0,1,1730.27,1257.48)" stroke-linejoin="bevel" stroke-width="7" font-weight="400" stroke-linecap="round" font-style="normal" stroke-opacity="1" font-family="Sans Serif" font-size="31.75" stroke="#000000">
    <path fill-rule="evenodd" vector-effect="none" d="M832.5,150 C832.5,195.563 795.563,232.5 750,232.5 C704.437,232.5 667.5,195.563 667.5,150 C667.5,104.437 704.437,67.5 750,67.5 C795.563,67.5 832.5,104.437 832.5,150 "/>
   </g>
   <g fill="none" transform="matrix(1,0,0,1,1730.27,1257.48)" stroke-linejoin="bevel" stroke-width="7" font-weight="400" stroke-linecap="round" font-style="normal" stroke-opacity="1" font-family="Sans Serif" font-size="31.75" stroke="#000000">
    <path fill-rule="evenodd" vector-effect="none" d="M125,115 C125,123.284 118.284,130 110,130 C101.716,130 95,123.284 95,115 C95,106.716 101.716,100 110,100 C118.284,100 125,106.716 125,115 "/>
   </g>
   <g fill="none" transform="matrix(1,0,0,1,1730.27,1257.48)" stroke-linejoin="bevel" stroke-width="7" font-weight="400" stroke-linecap="round" font-style="normal" stroke-opacity="1" font-family="Sans Serif" font-size="31.75" stroke="#000000">
    <path fill-rule="evenodd" vector-effect="none" d="M972.5,-300 C972.5,-287.574 962.426,-277.5 950,-277.5 C937.574,-277.5 927.5,-287.574 927.5,-300 C927.5,-312.426 937.574,-322.5 950,-322.5 C962.426,-322.5 972.5,-312.426 972.5,-300 "/>
   </g>
   <g fill="none" transform="matrix(1,0,0,1,1730.27,1257.48)" stroke-linejoin="bevel" stroke-width="7" font-weight="400" stroke-linecap="round" font-style="normal" stroke-opacity="1" font-family="Sans Serif" font-size="31.75" stroke="#000000">
    <path fill-rule="evenodd" vector-effect="none" d="M-120,285 C-120,293.284 -126.716,300 -135,300 C-143.284,300 -150,293.284 -150,285 C-150,276.716 -143.284,270 -135,270 C-126.716,270 -120,276.716 -120,285 "/>
   </g>
   <g fill="none" transform="matrix(1,0,0,1,1730.27,1257.48)" stroke-linejoin="bevel" stroke-width="7" font-weight="400" stroke-linecap="round" font-style="normal" stroke-opacity="1" font-family="Sans Serif" font-size="31.75" stroke="#000000">
    <path fill-rule="evenodd" vector-effect="none" d="M-80,100 L80,100"/>
   </g>
   <g fill="none" transform="matrix(1,0,0,1,1730.27,1257.48)" stroke-linejoin="bevel" stroke-width="7" font-weight="400" stroke-linecap="round" font-style="normal" stroke-opacity="1" font-family="Sans Serif" font-size="31.75" stroke="#000000">
    <path fill-rule="evenodd" vector-effect="none" d="M-80,130 L-80,100"/>
   </g>
   <g fill="none" transform="matrix(1,0,0,1,1730.27,1257.48)" stroke-linejoin="bevel" stroke-width="7" font-weight="400" stroke-linecap="round" font-style="normal" stroke-opacity="1" font-family="Sans Serif" font-size="31.75" stroke="#000000">
    <path fill-rule="evenodd" vector-effect="none" d="M80,100 L80,130"/>
   </g>
   <g fill="none" transform="matrix(1,0,0,1,1730.27,1257.48)" stroke-linejoin="bevel" stroke-width="7" font-weight="400" stroke-linecap="round" font-style="normal" stroke-opacity="1" font-family="Sans Serif" font-size="31.75" stroke="#000000">
    <path fill-rule="evenodd" vector-effect="none" d="M80,130 L-80,130"/>
   </g>
   <g fill="none" transform="matrix(1,0,0,1,1730.27,1257.48)" stroke-linejoin="bevel" stroke-width="7" font-weight="400" stroke-linecap="round" font-style="normal" stroke-opacity="1" font-family="Sans Serif" font-size="31.75" stroke="#000000">
    <path fill-rule="evenodd" vector-effect="none" d="M-120,255 L-120,-105"/>
   </g>
   <g fill="none" transform="matrix(1,0,0,1,1730.27,1257.48)" stroke-linejoin="bevel" stroke-width="7" font-weight="400" stroke-linecap="round" font-style="normal" stroke-opacity="1" font-family="Sans Serif" font-size="31.75" stroke="#000000">
    <path fill-rule="evenodd" vector-effect="none" d="M-150,255 L-120,255"/>
   </g>
   <g fill="none" transform="matrix(1,0,0,1,1730.27,1257.48)" stroke-linejoin="bevel" stroke-width="7" font-weight="400" stroke-linecap="round" font-style="normal" stroke-opacity="1" font-family="Sans Serif" font-size="31.75" stroke="#000000">
    <path fill-rule="evenodd" vector-effect="none" d="M-120,-105 L-150,-105"/>
   </g>
   <g fill="none" transform="matrix(1,0,0,1,1730.27,1257.48)" stroke-linejoin="bevel" stroke-width="7" font-weight="400" stroke-linecap="round" font-style="normal" stroke-opacity="1" font-family="Sans Serif" font-size="31.75" stroke="#000000">
    <path fill-rule="evenodd" vector-effect="none" d="M-150,-105 L-150,255"/>
   </g>
   <g fill="none" transform="matrix(1,0,0,1,1730.27,1257.48)" stroke-linejoin="bevel" stroke-width="7" font-weight="400" stroke-linecap="round" font-style="normal" stroke-opacity="1" font-family="Sans Serif" font-size="31.75" stroke="#000000">
    <path fill-rule="evenodd" vector-effect="none" d="M-1177.5,250 C-1177.5,262.426 -1187.57,272.5 -1200,272.5 C-1212.43,272.5 -1222.5,262.426 -1222.5,250 C-1222.5,237.574 -1212.43,227.5 -1200,227.5 C-1187.57,227.5 -1177.5,237.574 -1177.5,250 "/>
   </g>
   <g fill="none" transform="matrix(1,0,0,1,1730.27,1257.48)" stroke-linejoin="bevel" stroke-width="7" font-weight="400" stroke-linecap="round" font-style="normal" stroke-opacity="1" font-family="Sans Serif" font-size="31.75" stroke="#000000">
    <path fill-rule="evenodd" vector-effect="none" d="M-120,-135 C-120,-126.716 -126.716,-120 -135,-120 C-143.284,-120 -150,-126.716 -150,-135 C-150,-143.284 -143.284,-150 -135,-150 C-126.716,-150 -120,-143.284 -120,-135 "/>
   </g>
   <g fill="none" transform="matrix(1,0,0,1,1730.27,1257.48)" stroke-linejoin="bevel" stroke-width="7" font-weight="400" stroke-linecap="round" font-style="normal" stroke-opacity="1" font-family="Sans Serif" font-size="31.75" stroke="#000000">
    <path fill-rule="evenodd" vector-effect="none" d="M22.5,-300 C22.5,-287.574 12.4264,-277.5 0,-277.5 C-12.4264,-277.5 -22.5,-287.574 -22.5,-300 C-22.5,-312.426 -12.4264,-322.5 0,-322.5 C12.4264,-322.5 22.5,-312.426 22.5,-300 "/>
   </g>
   <g fill="none" transform="matrix(1,0,0,1,1730.27,1257.48)" stroke-linejoin="bevel" stroke-width="7" font-weight="400" stroke-linecap="round" font-style="normal" stroke-opacity="1" font-family="Sans Serif" font-size="31.75" stroke="#000000">
    <path fill-rule="evenodd" vector-effect="none" d="M-927.5,-300 C-927.5,-287.574 -937.574,-277.5 -950,-277.5 C-962.426,-277.5 -972.5,-287.574 -972.5,-300 C-972.5,-312.426 -962.426,-322.5 -950,-322.5 C-937.574,-322.5 -927.5,-312.426 -927.5,-300 "/>
   </g>
   <g fill="none" transform="matrix(0,-1,1,0,3355.57,1290.48)" stroke-linejoin="bevel" stroke-width="1" font-weight="400" stroke-linecap="square" font-style="normal" stroke-opacity="1" font-family="Sans Serif" font-size="31.75" stroke="#000000">
    <text y="70" xml:space="preserve" fill="#000000" fill-opacity="1" font-weight="400" font-style="normal" font-family="osifont" font-size="50" stroke="none" x="4">80</text>
   </g>
   <g fill="none" transform="matrix(1,0,0,1,1730.27,1257.48)" stroke-linejoin="bevel" stroke-width="3.5" font-weight="400" stroke-linecap="round" font-style="normal" stroke-opacity="1" font-family="Sans Serif" font-size="31.75" stroke="#000000">
    <path fill-rule="evenodd" vector-effect="none" d="M1710.55,-400 L1710.55,400 M1300,400 L1738.55,400 M1300,-400 L1738.55,-400"/>
   </g>
   <g fill="#000000" transform="matrix(1,0,0,1,3440.82,1657.48)" stroke-linejoin="bevel" stroke-width="3.5" fill-opacity="1" font-weight="400" stroke-linecap="round" font-style="normal" stroke-opacity="1" font-family="Sans Serif" font-size="31.75" stroke="#000000">
    <path fill-rule="evenodd" vector-effect="none" d="M0,0 L8.33333,-50 L-8.33333,-50 L0,0"/>
   </g>
   <g fill="#000000" transform="matrix(1,0,0,1,3440.82,857.476)" stroke-linejoin="bevel" stroke-width="3.5" fill-opacity="1" font-weight="400" stroke-linecap="round" font-style="normal" stroke-opacity="1" font-family="Sans Serif" font-size="31.75" stroke="#000000">
    <path fill-rule="evenodd" vector-effect="none" d="M0,0 L-8.33333,50 L8.33333,50 L0,0"/>
   </g>
   <g fill="none" transform="matrix(1,0,0,1,1674.61,641.228)" stroke-linejoin="bevel" stroke-width="1" font-weight="400" stroke-linecap="square" font-style="normal" stroke-opacity="1" font-family="Sans Serif" font-size="31.75" stroke="#000000">
    <text y="70" xml:space="preserve" fill="#000000" fill-opacity="1" font-weight="400" font-style="normal" font-family="osifont" font-size="50" stroke="none" x="4">260</text>
   </g>
   <g fill="none" transform="matrix(1,0,0,1,1730.27,1257.48)" stroke-linejoin="bevel" stroke-width="3.5" font-weight="400" stroke-linecap="round" font-style="normal" stroke-opacity="1" font-family="Sans Serif" font-size="31.75" stroke="#000000">
    <path fill-rule="evenodd" vector-effect="none" d="M-1300,-530.998 L1300,-530.998 M1300,-400 L1300,-558.998 M-1300,-400 L-1300,-558.998"/>
   </g>
   <g fill="#000000" transform="matrix(1,0,0,1,3030.27,726.478)" stroke-linejoin="bevel" stroke-width="3.5" fill-opacity="1" font-weight="400" stroke-linecap="round" font-style="normal" stroke-opacity="1" font-family="Sans Serif" font-size="31.75" stroke="#000000">
    <path fill-rule="evenodd" vector-effect="none" d="M0,0 L-50,-8.33333 L-50,8.33333 L0,0"/>
   </g>
   <g fill="#000000" transform="matrix(1,0,0,1,430.274,726.478)" stroke-linejoin="bevel" stroke-width="3.5" fill-opacity="1" font-weight="400" stroke-linecap="round" font-style="normal" stroke-opacity="1" font-family="Sans Serif" font-size="31.75" stroke="#000000">
    <path fill-rule="evenodd" vector-effect="none" d="M0,0 L50,8.33333 L50,-8.33333 L0,0"/>
   </g>
   <g fill="none" transform="matrix(0.999907,-0.0136183,0.0136183,0.999907,2610.32,1319.7)" stroke-linejoin="bevel" stroke-width="1" font-weight="400" stroke-linecap="square" font-style="normal" stroke-opacity="1" font-family="Sans Serif" font-size="31.75" stroke="#000000">
    <text y="70" xml:space="preserve" fill="#000000" fill-opacity="1" font-weight="400" font-style="normal" font-family="osifont" font-size="50" stroke="none" x="4">⌀16.5</text>
   </g>
   <g fill="none" transform="matrix(1,0,0,1,1730.27,1257.48)" stroke-linejoin="bevel" stroke-width="3.5" font-weight="400" stroke-linecap="round" font-style="normal" stroke-opacity="1" font-family="Sans Serif" font-size="31.75" stroke="#000000">
    <path fill-rule="evenodd" vector-effect="none" d="M567.517,152.485 L999.516,146.602"/>
   </g>
   <g fill="#000000" transform="matrix(1,0,0,1,2562.77,1406.35)" stroke-linejoin="bevel" stroke-width="3.5" fill-opacity="1" font-weight="400" stroke-linecap="round" font-style="normal" stroke-opacity="1" font-family="Sans Serif" font-size="31.75" stroke="#000000">
    <path fill-rule="evenodd" vector-effect="none" d="M0,0 L50.1088,7.65164 L49.8819,-9.01348 L0,0"/>
   </g>
   <g fill="#000000" transform="matrix(1,0,0,1,2397.78,1408.6)" stroke-linejoin="bevel" stroke-width="3.5" fill-opacity="1" font-weight="400" stroke-linecap="round" font-style="normal" stroke-opacity="1" font-family="Sans Serif" font-size="31.75" stroke="#000000">
    <path fill-rule="evenodd" vector-effect="none" d="M0,0 L-50.1088,-7.65164 L-49.8819,9.01348 L0,0"/>
   </g>
   <g fill="none" transform="matrix(0.99668,0.0814189,-0.0814189,0.99668,2734.6,1405.2)" stroke-linejoin="bevel" stroke-width="1" font-weight="400" stroke-linecap="square" font-style="normal" stroke-opacity="1" font-family="Sans Serif" font-size="31.75" stroke="#000000">
    <text y="70" xml:space="preserve" fill="#000000" fill-opacity="1" font-weight="400" font-style="normal" font-family="osifont" font-size="50" stroke="none" x="4">⌀4.5</text>
   </g>
   <g fill="none" transform="matrix(1,0,0,1,1730.27,1257.48)" stroke-linejoin="bevel" stroke-width="3.5" font-weight="400" stroke-linecap="round" font-style="normal" stroke-opacity="1" font-family="Sans Serif" font-size="31.75" stroke="#000000">
    <path fill-rule="evenodd" vector-effect="none" d="M1322.09,259.974 L983.106,232.282"/>
   </g>
   <g fill="#000000" transform="matrix(1,0,0,1,2907.85,1505.64)" stroke-linejoin="bevel" stroke-width="3.5" fill-opacity="1" font-weight="400" stroke-linecap="round" font-style="normal" stroke-opacity="1" font-family="Sans Serif" font-size="31.75" stroke="#000000">
    <path fill-rule="evenodd" vector-effect="none" d="M0,0 L-49.1555,-12.3766 L-50.5125,4.23472 L0,0"/>
   </g>
   <g fill="#000000" transform="matrix(1,0,0,1,2952.7,1509.31)" stroke-linejoin="bevel" stroke-width="3.5" fill-opacity="1" font-weight="400" stroke-linecap="round" font-style="normal" stroke-opacity="1" font-family="Sans Serif" font-size="31.75" stroke="#000000">
    <path fill-rule="evenodd" vector-effect="none" d="M0,0 L49.1555,12.3766 L50.5125,-4.23472 L0,0"/>
   </g>
   <g fill="none" transform="matrix(0.998993,0.0448762,-0.0448762,0.998993,1669.23,1039.71)" stroke-linejoin="bevel" stroke-width="1" font-weight="400" stroke-linecap="square" font-style="normal" stroke-opacity="1" font-family="Sans Serif" font-size="31.75" stroke="#000000">
    <text y="70" xml:space="preserve" fill="#000000" fill-opacity="1" font-weight="400" font-style="normal" font-family="osifont" font-size="50" stroke="none" x="4">⌀3</text>
   </g>
   <g fill="none" transform="matrix(1,0,0,1,1730.27,1257.48)" stroke-linejoin="bevel" stroke-width="3.5" font-weight="400" stroke-linecap="round" font-style="normal" stroke-opacity="1" font-family="Sans Serif" font-size="31.75" stroke="#000000">
    <path fill-rule="evenodd" vector-effect="none" d="M-249.884,-140.161 L0.588194,-128.909"/>
   </g>
   <g fill="#000000" transform="matrix(1,0,0,1,1610.26,1123.15)" stroke-linejoin="bevel" stroke-width="3.5" fill-opacity="1" font-weight="400" stroke-linecap="round" font-style="normal" stroke-opacity="1" font-family="Sans Serif" font-size="31.75" stroke="#000000">
    <path fill-rule="evenodd" vector-effect="none" d="M0,0 L49.5757,10.5687 L50.3236,-6.08113 L0,0"/>
   </g>
   <g fill="#000000" transform="matrix(1,0,0,1,1580.29,1121.8)" stroke-linejoin="bevel" stroke-width="3.5" fill-opacity="1" font-weight="400" stroke-linecap="round" font-style="normal" stroke-opacity="1" font-family="Sans Serif" font-size="31.75" stroke="#000000">
    <path fill-rule="evenodd" vector-effect="none" d="M0,0 L-49.5757,-10.5687 L-50.3236,6.08113 L0,0"/>
   </g>
   <g fill="none" transform="matrix(0.590698,-0.806893,0.806893,0.590698,1812.57,1264.73)" stroke-linejoin="bevel" stroke-width="1" font-weight="400" stroke-linecap="square" font-style="normal" stroke-opacity="1" font-family="Sans Serif" font-size="31.75" stroke="#000000">
    <text y="70" xml:space="preserve" fill="#000000" fill-opacity="1" font-weight="400" font-style="normal" font-family="osifont" font-size="50" stroke="none" x="4">⌀3</text>
   </g>
   <g fill="none" transform="matrix(1,0,0,1,1730.27,1257.48)" stroke-linejoin="bevel" stroke-width="3.5" font-weight="400" stroke-linecap="round" font-style="normal" stroke-opacity="1" font-family="Sans Serif" font-size="31.75" stroke="#000000">
    <path fill-rule="evenodd" vector-effect="none" d="M42.0697,207.793 L190.409,5.1608"/>
   </g>
   <g fill="#000000" transform="matrix(1,0,0,1,1849.13,1360.37)" stroke-linejoin="bevel" stroke-width="3.5" fill-opacity="1" font-weight="400" stroke-linecap="round" font-style="normal" stroke-opacity="1" font-family="Sans Serif" font-size="31.75" stroke="#000000">
    <path fill-rule="evenodd" vector-effect="none" d="M0,0 L36.259,-35.4221 L22.8108,-45.2671 L0,0"/>
   </g>
   <g fill="#000000" transform="matrix(1,0,0,1,1831.41,1384.58)" stroke-linejoin="bevel" stroke-width="3.5" fill-opacity="1" font-weight="400" stroke-linecap="round" font-style="normal" stroke-opacity="1" font-family="Sans Serif" font-size="31.75" stroke="#000000">
    <path fill-rule="evenodd" vector-effect="none" d="M0,0 L-36.259,35.4221 L-22.8108,45.2671 L0,0"/>
   </g>
   <g fill="none" transform="matrix(0.999631,0.0271627,-0.0271627,0.999631,929.192,875.491)" stroke-linejoin="bevel" stroke-width="1" font-weight="400" stroke-linecap="square" font-style="normal" stroke-opacity="1" font-family="Sans Serif" font-size="31.75" stroke="#000000">
    <text y="70" xml:space="preserve" fill="#000000" fill-opacity="1" font-weight="400" font-style="normal" font-family="osifont" font-size="50" stroke="none" x="4">⌀4.5</text>
   </g>
   <g fill="none" transform="matrix(1,0,0,1,1730.27,1257.48)" stroke-linejoin="bevel" stroke-width="3.5" font-weight="400" stroke-linecap="round" font-style="normal" stroke-opacity="1" font-family="Sans Serif" font-size="31.75" stroke="#000000">
    <path fill-rule="evenodd" vector-effect="none" d="M-1072.45,-303.327 L-701.252,-293.241"/>
   </g>
   <g fill="#000000" transform="matrix(1,0,0,1,802.765,958.087)" stroke-linejoin="bevel" stroke-width="3.5" fill-opacity="1" font-weight="400" stroke-linecap="round" font-style="normal" stroke-opacity="1" font-family="Sans Serif" font-size="31.75" stroke="#000000">
    <path fill-rule="evenodd" vector-effect="none" d="M0,0 L49.7552,9.68839 L50.2079,-6.97213 L0,0"/>
   </g>
   <g fill="#000000" transform="matrix(1,0,0,1,757.782,956.865)" stroke-linejoin="bevel" stroke-width="3.5" fill-opacity="1" font-weight="400" stroke-linecap="round" font-style="normal" stroke-opacity="1" font-family="Sans Serif" font-size="31.75" stroke="#000000">
    <path fill-rule="evenodd" vector-effect="none" d="M0,0 L-49.7552,-9.68839 L-50.2079,6.97213 L0,0"/>
   </g>
   <g fill="none" transform="matrix(0,-1,1,0,1344.26,1352.91)" stroke-linejoin="bevel" stroke-width="1" font-weight="400" stroke-linecap="square" font-style="normal" stroke-opacity="1" font-family="Sans Serif" font-size="31.75" stroke="#000000">
    <text y="70" xml:space="preserve" fill="#000000" fill-opacity="1" font-weight="400" font-style="normal" font-family="osifont" font-size="50" stroke="none" x="4">36</text>
   </g>
   <g fill="none" transform="matrix(1,0,0,1,1730.27,1257.48)" stroke-linejoin="bevel" stroke-width="3.5" font-weight="400" stroke-linecap="round" font-style="normal" stroke-opacity="1" font-family="Sans Serif" font-size="31.75" stroke="#000000">
    <path fill-rule="evenodd" vector-effect="none" d="M-300.767,-105 L-300.767,255 M-150,255 L-328.767,255 M-150,-105 L-328.767,-105"/>
   </g>
   <g fill="#000000" transform="matrix(1,0,0,1,1429.51,1512.48)" stroke-linejoin="bevel" stroke-width="3.5" fill-opacity="1" font-weight="400" stroke-linecap="round" font-style="normal" stroke-opacity="1" font-family="Sans Serif" font-size="31.75" stroke="#000000">
    <path fill-rule="evenodd" vector-effect="none" d="M0,0 L8.33333,-50 L-8.33333,-50 L0,0"/>
   </g>
   <g fill="#000000" transform="matrix(1,0,0,1,1429.51,1152.48)" stroke-linejoin="bevel" stroke-width="3.5" fill-opacity="1" font-weight="400" stroke-linecap="round" font-style="normal" stroke-opacity="1" font-family="Sans Serif" font-size="31.75" stroke="#000000">
    <path fill-rule="evenodd" vector-effect="none" d="M0,0 L-8.33333,50 L8.33333,50 L0,0"/>
   </g>
   <g fill="none" transform="matrix(1,0,0,1,1575.47,738.293)" stroke-linejoin="bevel" stroke-width="1" font-weight="400" stroke-linecap="square" font-style="normal" stroke-opacity="1" font-family="Sans Serif" font-size="31.75" stroke="#000000">
    <text y="70" xml:space="preserve" fill="#000000" fill-opacity="1" font-weight="400" font-style="normal" font-family="osifont" font-size="50" stroke="none" x="4">3</text>
   </g>
   <g fill="none" transform="matrix(1,0,0,1,1730.27,1257.48)" stroke-linejoin="bevel" stroke-width="3.5" font-weight="400" stroke-linecap="round" font-style="normal" stroke-opacity="1" font-family="Sans Serif" font-size="31.75" stroke="#000000">
    <path fill-rule="evenodd" vector-effect="none" d="M-20,-433.933 L-250,-433.933 M-150,-105 L-150,-461.933 M-120,-105 L-120,-461.933"/>
   </g>
   <g fill="#000000" transform="matrix(1,0,0,1,1580.27,823.543)" stroke-linejoin="bevel" stroke-width="3.5" fill-opacity="1" font-weight="400" stroke-linecap="round" font-style="normal" stroke-opacity="1" font-family="Sans Serif" font-size="31.75" stroke="#000000">
    <path fill-rule="evenodd" vector-effect="none" d="M0,0 L-50,-8.33333 L-50,8.33333 L0,0"/>
   </g>
   <g fill="#000000" transform="matrix(1,0,0,1,1610.27,823.543)" stroke-linejoin="bevel" stroke-width="3.5" fill-opacity="1" font-weight="400" stroke-linecap="round" font-style="normal" stroke-opacity="1" font-family="Sans Serif" font-size="31.75" stroke="#000000">
    <path fill-rule="evenodd" vector-effect="none" d="M0,0 L50,8.33333 L50,-8.33333 L0,0"/>
   </g>
   <g fill="none" transform="matrix(0,-1,1,0,1458.22,1392.3)" stroke-linejoin="bevel" stroke-width="1" font-weight="400" stroke-linecap="square" font-style="normal" stroke-opacity="1" font-family="Sans Serif" font-size="31.75" stroke="#000000">
    <text y="70" xml:space="preserve" fill="#000000" fill-opacity="1" font-weight="400" font-style="normal" font-family="osifont" font-size="50" stroke="none" x="4">3</text>
   </g>
   <g fill="none" transform="matrix(1,0,0,1,1730.27,1257.48)" stroke-linejoin="bevel" stroke-width="3.5" font-weight="400" stroke-linecap="round" font-style="normal" stroke-opacity="1" font-family="Sans Serif" font-size="31.75" stroke="#000000">
    <path fill-rule="evenodd" vector-effect="none" d="M-186.807,230 L-186.807,0 M-80,100 L-214.807,100 M-80,130 L-214.807,130"/>
   </g>
   <g fill="#000000" transform="matrix(1,0,0,1,1543.47,1357.48)" stroke-linejoin="bevel" stroke-width="3.5" fill-opacity="1" font-weight="400" stroke-linecap="round" font-style="normal" stroke-opacity="1" font-family="Sans Serif" font-size="31.75" stroke="#000000">
    <path fill-rule="evenodd" vector-effect="none" d="M0,0 L8.33333,-50 L-8.33333,-50 L0,0"/>
   </g>
   <g fill="#000000" transform="matrix(1,0,0,1,1543.47,1387.48)" stroke-linejoin="bevel" stroke-width="3.5" fill-opacity="1" font-weight="400" stroke-linecap="round" font-style="normal" stroke-opacity="1" font-family="Sans Serif" font-size="31.75" stroke="#000000">
    <path fill-rule="evenodd" vector-effect="none" d="M0,0 L-8.33333,50 L8.33333,50 L0,0"/>
   </g>
   <g fill="none" transform="matrix(1,0,0,1,1710.28,1213.29)" stroke-linejoin="bevel" stroke-width="1" font-weight="400" stroke-linecap="square" font-style="normal" stroke-opacity="1" font-family="Sans Serif" font-size="31.75" stroke="#000000">
    <text y="70" xml:space="preserve" fill="#000000" fill-opacity="1" font-weight="400" font-style="normal" font-family="osifont" font-size="50" stroke="none" x="4">16</text>
   </g>
   <g fill="none" transform="matrix(1,0,0,1,1730.27,1257.48)" stroke-linejoin="bevel" stroke-width="3.5" font-weight="400" stroke-linecap="round" font-style="normal" stroke-opacity="1" font-family="Sans Serif" font-size="31.75" stroke="#000000">
    <path fill-rule="evenodd" vector-effect="none" d="M-80,41.0664 L80,41.0664 M80,100 L80,13.0664 M-80,100 L-80,13.0664"/>
   </g>
   <g fill="#000000" transform="matrix(1,0,0,1,1810.27,1298.54)" stroke-linejoin="bevel" stroke-width="3.5" fill-opacity="1" font-weight="400" stroke-linecap="round" font-style="normal" stroke-opacity="1" font-family="Sans Serif" font-size="31.75" stroke="#000000">
    <path fill-rule="evenodd" vector-effect="none" d="M0,0 L-50,-8.33333 L-50,8.33333 L0,0"/>
   </g>
   <g fill="#000000" transform="matrix(1,0,0,1,1650.27,1298.54)" stroke-linejoin="bevel" stroke-width="3.5" fill-opacity="1" font-weight="400" stroke-linecap="round" font-style="normal" stroke-opacity="1" font-family="Sans Serif" font-size="31.75" stroke="#000000">
    <path fill-rule="evenodd" vector-effect="none" d="M0,0 L50,8.33333 L50,-8.33333 L0,0"/>
   </g>
   <g fill="#ffffff" transform="matrix(1,0,0,1,3241.08,1257.48)" fill-opacity="1" font-weight="400" font-style="normal" font-family="Sans Serif" font-size="31.75" stroke="none">
    <path fill-rule="evenodd" vector-effect="non-scaling-stroke" d="M-15,400 L15,400 L15,-400 L-15,-400 L-15,400"/>
   </g>
   <g fill="none" transform="matrix(1,0,0,1,3241.08,1257.48)" stroke-linejoin="bevel" stroke-width="7" font-weight="400" stroke-linecap="round" font-style="normal" stroke-opacity="1" font-family="Sans Serif" font-size="31.75" stroke="#000000">
    <path fill-rule="evenodd" vector-effect="none" d="M-15,400 L15,400"/>
   </g>
   <g fill="none" transform="matrix(1,0,0,1,3241.08,1257.48)" stroke-linejoin="bevel" stroke-width="7" font-weight="400" stroke-linecap="round" font-style="normal" stroke-opacity="1" font-family="Sans Serif" font-size="31.75" stroke="#000000">
    <path fill-rule="evenodd" vector-effect="none" d="M-15,-400 L15,-400"/>
   </g>
   <g fill="none" transform="matrix(1,0,0,1,3241.08,1257.48)" stroke-linejoin="bevel" stroke-width="7" font-weight="400" stroke-linecap="round" font-style="normal" stroke-opacity="1" font-family="Sans Serif" font-size="31.75" stroke="#000000">
    <path fill-rule="evenodd" vector-effect="none" d="M-15,400 L-15,-400"/>
   </g>
   <g fill="none" transform="matrix(1,0,0,1,3241.08,1257.48)" stroke-linejoin="bevel" stroke-width="7" font-weight="400" stroke-linecap="round" font-style="normal" stroke-opacity="1" font-family="Sans Serif" font-size="31.75" stroke="#000000">
    <path fill-rule="evenodd" vector-effect="none" d="M15,400 L15,-400"/>
   </g>
  </g>
 </g>
</svg>
